<svg width="680" height="860" viewBox="0 0 680 860" xmlns="http://www.w3.org/2000/svg" style="background:#ffffff;font-family:system-ui,-apple-system,sans-serif">
<defs>
  <marker id="arrow" viewBox="0 0 10 10" refX="8" refY="5" markerWidth="6" markerHeight="6" orient="auto-start-reverse">
    <path d="M2 1L8 5L2 9" fill="none" stroke="context-stroke" stroke-width="1.5" stroke-linecap="round" stroke-linejoin="round"/>
  </marker>
</defs>

<text x="340" y="30" text-anchor="middle" font-size="15" font-weight="600" fill="#1a1a1a">AVIVO AVI — System Design</text>

<rect x="40" y="52" width="120" height="44" rx="8" fill="#F1EFE8" stroke="#888780" stroke-width="0.5"/>
<text x="100" y="70" text-anchor="middle" dominant-baseline="central" font-size="13" font-weight="500" fill="#444441">Telegram user</text>
<text x="100" y="87" text-anchor="middle" dominant-baseline="central" font-size="11" fill="#5F5E5A">sends command</text>

<line x1="160" y1="74" x2="222" y2="74" stroke="#378ADD" stroke-width="1.5" marker-end="url(#arrow)"/>

<rect x="224" y="52" width="190" height="44" rx="8" fill="#E6F1FB" stroke="#185FA5" stroke-width="0.5"/>
<text x="319" y="70" text-anchor="middle" dominant-baseline="central" font-size="13" font-weight="500" fill="#0C447C">app.py</text>
<text x="319" y="87" text-anchor="middle" dominant-baseline="central" font-size="11" fill="#185FA5">CommandHandler + ConversationHandler</text>

<path d="M224 60 Q160 28 160 60" fill="none" stroke="#888780" stroke-width="1" stroke-dasharray="4 3" marker-end="url(#arrow)"/>
<text x="183" y="28" text-anchor="middle" font-size="11" fill="#5F5E5A">reply</text>

<line x1="319" y1="96" x2="319" y2="130" stroke="#378ADD" stroke-width="1.5" marker-end="url(#arrow)"/>

<rect x="174" y="132" width="290" height="56" rx="8" fill="#E6F1FB" stroke="#185FA5" stroke-width="0.5"/>
<text x="319" y="152" text-anchor="middle" dominant-baseline="central" font-size="13" font-weight="500" fill="#0C447C">bot/handlers.py</text>
<text x="319" y="169" text-anchor="middle" dominant-baseline="central" font-size="11" fill="#185FA5">/ask · /image · /summarize · /help</text>

<line x1="319" y1="188" x2="319" y2="222" stroke="#378ADD" stroke-width="1.5" marker-end="url(#arrow)"/>

<rect x="174" y="224" width="290" height="56" rx="8" fill="#EEEDFE" stroke="#534AB7" stroke-width="0.5"/>
<text x="319" y="244" text-anchor="middle" dominant-baseline="central" font-size="13" font-weight="500" fill="#3C3489">bot/router.py</text>
<text x="319" y="261" text-anchor="middle" dominant-baseline="central" font-size="11" fill="#534AB7">route_text · route_image · route_summarize</text>

<path d="M174 252 L100 252 L100 308" fill="none" stroke="#888780" stroke-width="1" stroke-dasharray="4 3" marker-end="url(#arrow)"/>
<text x="60" y="276" text-anchor="middle" font-size="11" fill="#5F5E5A">cache?</text>

<path d="M 230 280 L 230 292 L 18 292 L 18 434 L 50 434" fill="none" stroke="#0F6E56" stroke-width="1.5" marker-end="url(#arrow)"/>

<path d="M 408 280 L 408 292 L 648 292 L 648 430 L 626 430" fill="none" stroke="#993C1D" stroke-width="1.5" marker-end="url(#arrow)"/>

<rect x="36" y="310" width="270" height="235" rx="12" fill="none" stroke="#0F6E56" stroke-width="0.8" stroke-dasharray="5 3" opacity="0.7"/>
<text x="56" y="326" font-size="11" fill="#0F6E56" font-weight="500">RAG pipeline</text>

<rect x="50" y="336" width="238" height="44" rx="8" fill="#E1F5EE" stroke="#0F6E56" stroke-width="0.5"/>
<text x="169" y="354" text-anchor="middle" dominant-baseline="central" font-size="13" font-weight="500" fill="#085041">rag/embedder.py</text>
<text x="169" y="370" text-anchor="middle" dominant-baseline="central" font-size="11" fill="#0F6E56">vector encoding</text>

<line x1="150" y1="412" x2="150" y2="380" stroke="#0F6E56" stroke-width="1.5" marker-end="url(#arrow)"/>
<line x1="188" y1="380" x2="188" y2="412" stroke="#0F6E56" stroke-width="1.5" marker-end="url(#arrow)"/>

<rect x="50" y="412" width="238" height="44" rx="8" fill="#E1F5EE" stroke="#0F6E56" stroke-width="0.5"/>
<text x="169" y="430" text-anchor="middle" dominant-baseline="central" font-size="13" font-weight="500" fill="#085041">rag/retriever.py</text>
<text x="169" y="446" text-anchor="middle" dominant-baseline="central" font-size="11" fill="#0F6E56">cosine sim on SQLite</text>

<line x1="169" y1="456" x2="169" y2="488" stroke="#0F6E56" stroke-width="1.5" marker-end="url(#arrow)"/>

<rect x="50" y="488" width="238" height="44" rx="8" fill="#E1F5EE" stroke="#0F6E56" stroke-width="0.5"/>
<text x="169" y="506" text-anchor="middle" dominant-baseline="central" font-size="13" font-weight="500" fill="#085041">rag/generator.py</text>
<text x="169" y="522" text-anchor="middle" dominant-baseline="central" font-size="11" fill="#0F6E56">build prompt · format final ans</text>

<rect x="374" y="310" width="270" height="235" rx="12" fill="none" stroke="#993C1D" stroke-width="0.8" stroke-dasharray="5 3" opacity="0.7"/>
<text x="394" y="326" font-size="11" fill="#993C1D" font-weight="500">Vision pipeline</text>

<rect x="388" y="336" width="238" height="44" rx="8" fill="#FAECE7" stroke="#993C1D" stroke-width="0.5"/>
<text x="507" y="354" text-anchor="middle" dominant-baseline="central" font-size="13" font-weight="500" fill="#4A1B0C">vision/preprocessor.py</text>
<text x="507" y="370" text-anchor="middle" dominant-baseline="central" font-size="11" fill="#993C1D">resize · RGBA→RGB</text>

<line x1="488" y1="412" x2="488" y2="380" stroke="#993C1D" stroke-width="1.5" marker-end="url(#arrow)"/>
<line x1="526" y1="380" x2="526" y2="412" stroke="#993C1D" stroke-width="1.5" marker-end="url(#arrow)"/>

<rect x="388" y="412" width="238" height="44" rx="8" fill="#FAECE7" stroke="#993C1D" stroke-width="0.5"/>
<text x="507" y="430" text-anchor="middle" dominant-baseline="central" font-size="13" font-weight="500" fill="#4A1B0C">vision/captioner.py</text>
<text x="507" y="446" text-anchor="middle" dominant-baseline="central" font-size="11" fill="#993C1D">request image descriptions</text>

<line x1="507" y1="456" x2="507" y2="488" stroke="#993C1D" stroke-width="1.5" marker-end="url(#arrow)"/>

<rect x="388" y="488" width="238" height="44" rx="8" fill="#FAECE7" stroke="#993C1D" stroke-width="0.5"/>
<text x="507" y="506" text-anchor="middle" dominant-baseline="central" font-size="13" font-weight="500" fill="#4A1B0C">{caption, tags}</text>
<text x="507" y="522" text-anchor="middle" dominant-baseline="central" font-size="11" fill="#993C1D">structured JSON</text>

<rect x="36" y="622" width="608" height="100" rx="12" fill="none" stroke="#B4B2A9" stroke-width="0.6" stroke-dasharray="4 3" opacity="0.7"/>
<text x="56" y="638" font-size="11" fill="#5F5E5A" font-weight="500">Shared utilities</text>

<rect x="50" y="648" width="270" height="56" rx="8" fill="#F1EFE8" stroke="#888780" stroke-width="0.5"/>
<text x="185" y="667" text-anchor="middle" dominant-baseline="central" font-size="13" font-weight="500" fill="#2C2C2A">utils/cache.py</text>
<text x="185" y="684" text-anchor="middle" dominant-baseline="central" font-size="11" fill="#5F5E5A">SHA-256 / MD5 Cache</text>

<rect x="364" y="648" width="270" height="56" rx="8" fill="#F1EFE8" stroke="#888780" stroke-width="0.5"/>
<text x="499" y="667" text-anchor="middle" dominant-baseline="central" font-size="13" font-weight="500" fill="#2C2C2A">utils/history.py</text>
<text x="499" y="684" text-anchor="middle" dominant-baseline="central" font-size="11" fill="#5F5E5A">per-user conversation history</text>

<rect x="36" y="754" width="290" height="56" rx="8" fill="#FAEEDA" stroke="#854F0B" stroke-width="0.5"/>
<text x="181" y="774" text-anchor="middle" dominant-baseline="central" font-size="13" font-weight="500" fill="#412402">Ollama LLM server</text>
<text x="181" y="791" text-anchor="middle" dominant-baseline="central" font-size="11" fill="#854F0B">mistral:7b · llava:7b</text>

<rect x="354" y="754" width="290" height="56" rx="8" fill="#FAEEDA" stroke="#854F0B" stroke-width="0.5"/>
<text x="499" y="774" text-anchor="middle" dominant-baseline="central" font-size="13" font-weight="500" fill="#412402">SQLite (embeddings.db)</text>
<text x="499" y="791" text-anchor="middle" dominant-baseline="central" font-size="11" fill="#854F0B">float32 BLOB vectors</text>

<path d="M 50 518 L 10 518 L 10 742 L 100 742 L 100 754" fill="none" stroke="#BA7517" stroke-width="1.5" marker-end="url(#arrow)"/>

<path d="M 626 446 L 664 446 L 664 742 L 260 742 L 260 754" fill="none" stroke="#BA7517" stroke-width="1.5" marker-end="url(#arrow)"/>

<path d="M 50 502 L 26 502 L 26 620 L 140 620 L 140 648" fill="none" stroke="#888780" stroke-width="1" stroke-dasharray="4 3" marker-end="url(#arrow)"/>

<path d="M 288 510 L 314 510 L 314 620 L 499 620 L 499 648" fill="none" stroke="#888780" stroke-width="1" stroke-dasharray="4 3" marker-end="url(#arrow)"/>

<path d="M 388 510 L 350 510 L 350 620 L 230 620 L 230 648" fill="none" stroke="#888780" stroke-width="1" stroke-dasharray="4 3" marker-end="url(#arrow)"/>

<path d="M 354 782 L 342 782 L 342 445 L 288 445" fill="none" stroke="#888780" stroke-width="1" stroke-dasharray="4 3" marker-end="url(#arrow)"/>
<text x="314" y="440" font-size="10" fill="#5F5E5A" text-anchor="middle">read</text>

<line x1="40" y1="832" x2="66" y2="832" stroke="#0F6E56" stroke-width="2"/>
<text x="72" y="836" font-size="11" fill="#3d3d3a">RAG path</text>
<line x1="148" y1="832" x2="174" y2="832" stroke="#993C1D" stroke-width="2"/>
<text x="180" y="836" font-size="11" fill="#3d3d3a">Vision path</text>
<line x1="258" y1="832" x2="284" y2="832" stroke="#BA7517" stroke-width="2"/>
<text x="290" y="836" font-size="11" fill="#3d3d3a">LLM / DB call</text>
<line x1="394" y1="832" x2="420" y2="832" stroke="#888780" stroke-width="1.2" stroke-dasharray="3 3"/>
<text x="426" y="836" font-size="11" fill="#3d3d3a">Cache / Read / Utility flow</text>
</svg>
